<?xml version="1.0" encoding="utf-8"?>
<!-- Generator: Adobe Illustrator 16.0.0, SVG Export Plug-In . SVG Version: 6.00 Build 0)  -->
<!DOCTYPE svg PUBLIC "-//W3C//DTD SVG 1.1//EN" "http://www.w3.org/Graphics/SVG/1.1/DTD/svg11.dtd">
<svg version="1.1" id="logo" xmlns="http://www.w3.org/2000/svg" xmlns:xlink="http://www.w3.org/1999/xlink" x="0px" y="0px"
	 width="403px" height="83px" viewBox="-609.775 -26 403 83" enable-background="new -609.775 -26 403 83" xml:space="preserve">
<g>
	<g>
		<path fill="#FFEC00" d="M-325.93,21.671c2.288,0,4.143-1.854,4.143-4.143c0-2.289-1.855-4.144-4.143-4.144
			c-2.289,0-4.144,1.855-4.144,4.144C-330.074,19.817-328.219,21.671-325.93,21.671L-325.93,21.671z"/>
		<path fill="#FFEC00" d="M-314.632,21.671c2.289,0,4.145-1.854,4.145-4.143c0-2.289-1.855-4.144-4.145-4.144
			c-2.288,0-4.144,1.855-4.144,4.144C-318.776,19.817-316.92,21.671-314.632,21.671L-314.632,21.671z"/>
		<path fill="#FFEC00" d="M-303.332,13.384c-2.289,0-4.144,1.855-4.144,4.144c0,2.289,1.855,4.143,4.144,4.143
			c2.29,0,4.144-1.854,4.144-4.143C-299.188,15.239-301.043,13.384-303.332,13.384L-303.332,13.384z"/>
		<path fill="#C10B19" d="M-328.004,24.189c-2.288,0-4.144,1.856-4.144,4.145c0,2.288,1.856,4.143,4.144,4.143
			c2.289,0,4.145-1.854,4.145-4.143C-323.859,26.045-325.715,24.189-328.004,24.189L-328.004,24.189z"/>
		<path fill="#C10B19" d="M-316.703,24.189c-2.289,0-4.145,1.856-4.145,4.145c0,2.288,1.856,4.143,4.145,4.143
			c2.288,0,4.143-1.854,4.143-4.143C-312.56,26.045-314.415,24.189-316.703,24.189L-316.703,24.189z"/>
		<path fill="#C10B19" d="M-305.405,24.189c-2.288,0-4.143,1.856-4.143,4.145c0,2.288,1.855,4.143,4.143,4.143
			c2.289,0,4.144-1.854,4.144-4.143C-301.261,26.045-303.116,24.189-305.405,24.189L-305.405,24.189z"/>
		<path fill="#C10B19" d="M-330.223,35.439c-2.289,0-4.144,1.855-4.144,4.145c0,2.288,1.855,4.143,4.144,4.143
			s4.143-1.854,4.143-4.143C-326.08,37.295-327.935,35.439-330.223,35.439L-330.223,35.439z"/>
		<path fill="#C10B19" d="M-318.924,35.439c-2.288,0-4.144,1.855-4.144,4.145c0,2.288,1.855,4.143,4.144,4.143
			c2.289,0,4.144-1.854,4.144-4.143C-314.78,37.295-316.635,35.439-318.924,35.439L-318.924,35.439z"/>
		<path fill="#C10B19" d="M-307.624,35.439c-2.29,0-4.144,1.855-4.144,4.145c0,2.288,1.854,4.143,4.144,4.143
			c2.288,0,4.143-1.854,4.143-4.143C-303.482,37.295-305.337,35.439-307.624,35.439L-307.624,35.439z"/>
		<path fill="#C10B19" d="M-289.869,51.662h4.994v-1.078h-3.647v-0.726h3.439v-0.982h-3.439v-0.647h3.621v-1.057h-4.968V51.662
			L-289.869,51.662z M-283.773,51.662h1.346l-0.034-3.366h0.242l1.69,3.366h1.137l1.689-3.366h0.229l-0.034,3.366h1.346v-4.49
			h-2.463l-1.339,2.914l-1.333-2.914h-2.476V51.662L-283.773,51.662z M-274.862,51.662h4.992v-1.078h-3.647v-0.726h3.44v-0.982
			h-3.44v-0.647h3.621v-1.057h-4.966V51.662L-274.862,51.662z M-267.401,51.662v-1.139h1.931c0.143,0,0.259,0.002,0.35,0.005
			c0.092,0.002,0.158,0.009,0.203,0.016c0.047,0.007,0.087,0.019,0.122,0.034c0.035,0.018,0.063,0.039,0.087,0.066
			c0.026,0.027,0.048,0.063,0.066,0.104c0.017,0.041,0.031,0.089,0.042,0.14c0.008,0.053,0.015,0.124,0.021,0.213
			c0.003,0.087,0.005,0.193,0.005,0.318v0.243h1.345v-0.419c0-0.19-0.001-0.351-0.005-0.479c-0.003-0.127-0.01-0.221-0.021-0.282
			c-0.01-0.06-0.026-0.117-0.05-0.17c-0.024-0.054-0.054-0.102-0.092-0.146c-0.059-0.069-0.141-0.126-0.247-0.166
			c-0.102-0.041-0.226-0.065-0.37-0.075c0.242-0.041,0.424-0.107,0.544-0.201c0.057-0.048,0.104-0.103,0.142-0.163
			c0.037-0.062,0.066-0.13,0.087-0.208c0.02-0.078,0.035-0.176,0.047-0.297c0.009-0.12,0.013-0.262,0.013-0.423
			c0-0.194-0.007-0.363-0.024-0.506c-0.016-0.142-0.039-0.259-0.068-0.35c-0.035-0.09-0.08-0.171-0.137-0.242
			c-0.059-0.072-0.13-0.134-0.214-0.188c-0.07-0.043-0.143-0.077-0.216-0.102c-0.075-0.023-0.151-0.039-0.229-0.046
			c-0.076-0.007-0.231-0.014-0.464-0.019c-0.231-0.005-0.541-0.009-0.928-0.009h-3.305v4.49H-267.401L-267.401,51.662z
			 M-267.401,48.296h1.926c0.155,0,0.278,0.002,0.374,0.004c0.094,0.003,0.156,0.004,0.191,0.004
			c0.033,0.002,0.064,0.007,0.094,0.014s0.057,0.016,0.08,0.025c0.068,0.034,0.115,0.088,0.141,0.162
			c0.016,0.034,0.024,0.079,0.031,0.135c0.007,0.056,0.011,0.12,0.011,0.195c0,0.073-0.003,0.138-0.009,0.192
			c-0.007,0.055-0.016,0.1-0.024,0.138c-0.014,0.036-0.031,0.068-0.052,0.096c-0.021,0.028-0.047,0.052-0.077,0.071
			c-0.024,0.014-0.048,0.023-0.075,0.032c-0.028,0.007-0.057,0.012-0.087,0.016c-0.033,0.003-0.099,0.007-0.198,0.01
			c-0.099,0.004-0.233,0.007-0.4,0.011h-1.926V48.296L-267.401,48.296z M-259.292,50.012h1.796c0,0.03,0,0.059,0,0.079
			s0,0.036,0,0.043c0,0.066-0.002,0.124-0.011,0.173c-0.005,0.05-0.016,0.09-0.029,0.123c-0.014,0.029-0.031,0.057-0.054,0.08
			c-0.024,0.022-0.054,0.041-0.087,0.055c-0.082,0.033-0.19,0.053-0.324,0.061c-0.127,0.007-0.506,0.013-1.13,0.02
			c-0.316-0.002-0.568-0.008-0.758-0.014c-0.188-0.006-0.313-0.014-0.374-0.021c-0.057-0.002-0.111-0.014-0.158-0.032
			c-0.048-0.018-0.094-0.041-0.13-0.068c-0.036-0.032-0.068-0.075-0.092-0.128c-0.024-0.051-0.043-0.114-0.058-0.188
			c-0.012-0.078-0.022-0.183-0.029-0.313c-0.007-0.132-0.009-0.292-0.009-0.48c0-0.169,0.002-0.313,0.009-0.43
			c0.007-0.119,0.017-0.213,0.029-0.284c0.014-0.067,0.033-0.125,0.058-0.177c0.024-0.048,0.056-0.089,0.092-0.119
			c0.037-0.03,0.09-0.057,0.16-0.076c0.071-0.021,0.157-0.035,0.257-0.045c0.101-0.011,0.236-0.019,0.405-0.024
			c0.167-0.006,0.372-0.009,0.61-0.009c0.215,0,0.409,0.001,0.575,0.003c0.165,0.004,0.308,0.01,0.421,0.016
			c0.122,0.008,0.223,0.019,0.302,0.035c0.082,0.018,0.139,0.04,0.176,0.066c0.021,0.014,0.038,0.031,0.051,0.048
			c0.014,0.02,0.024,0.041,0.031,0.061c0.007,0.023,0.012,0.056,0.016,0.098c0.003,0.041,0.007,0.094,0.01,0.158h1.366
			c0-0.155-0.003-0.293-0.014-0.416c-0.01-0.12-0.022-0.228-0.04-0.317c-0.037-0.176-0.106-0.322-0.212-0.438
			c-0.104-0.116-0.242-0.202-0.414-0.255c-0.108-0.031-0.229-0.058-0.365-0.081c-0.134-0.024-0.284-0.044-0.449-0.061
			c-0.162-0.014-0.354-0.024-0.579-0.031c-0.227-0.006-0.479-0.01-0.762-0.01c-0.949,0-1.655,0.041-2.119,0.122
			c-0.208,0.036-0.382,0.106-0.52,0.213c-0.137,0.104-0.238,0.244-0.303,0.42c-0.033,0.08-0.059,0.167-0.082,0.261
			c-0.019,0.094-0.037,0.192-0.045,0.297c-0.011,0.104-0.02,0.234-0.025,0.389c-0.005,0.153-0.01,0.332-0.01,0.533
			c0,0.606,0.014,1.011,0.042,1.212c0.014,0.11,0.031,0.211,0.055,0.298c0.024,0.089,0.053,0.166,0.085,0.233
			c0.033,0.066,0.075,0.128,0.124,0.183c0.047,0.055,0.103,0.104,0.165,0.147c0.096,0.06,0.205,0.112,0.331,0.155
			c0.126,0.042,0.269,0.074,0.431,0.095c0.316,0.039,0.862,0.06,1.636,0.06c0.303,0,0.568-0.002,0.796-0.005
			c0.228-0.006,0.416-0.012,0.563-0.022c0.147-0.007,0.289-0.017,0.419-0.034c0.132-0.016,0.253-0.036,0.368-0.06
			c0.266-0.055,0.471-0.158,0.621-0.313c0.146-0.155,0.233-0.363,0.261-0.622c0.016-0.162,0.03-0.361,0.037-0.601
			c0.007-0.24,0.011-0.517,0.011-0.833c0-0.003,0-0.016-0.002-0.036c0-0.021-0.002-0.049-0.005-0.085h-3.122V50.012L-259.292,50.012
			z M-254.951,51.662h4.995v-1.078h-3.647v-0.726h3.438v-0.982h-3.438v-0.647h3.621v-1.057h-4.968V51.662L-254.951,51.662z
			 M-248.855,51.662h1.393l-0.033-3.353h0.148l2.362,3.353h2.376v-4.49h-1.393l0.033,3.352h-0.143l-2.349-3.352h-2.396V51.662
			L-248.855,51.662z M-237.168,50.463c-0.035,0.03-0.08,0.056-0.137,0.074c-0.059,0.021-0.132,0.034-0.219,0.041
			c-0.089,0.01-0.219,0.017-0.395,0.021c-0.174,0.003-0.393,0.005-0.655,0.005c-0.212,0-0.391-0.002-0.541-0.005
			c-0.148-0.004-0.265-0.011-0.348-0.021c-0.168-0.021-0.29-0.062-0.363-0.121c-0.042-0.031-0.075-0.071-0.102-0.122
			c-0.028-0.05-0.049-0.111-0.066-0.182c-0.014-0.067-0.024-0.161-0.031-0.281c-0.005-0.119-0.01-0.263-0.01-0.433
			c0-0.167,0.005-0.313,0.012-0.438c0.007-0.123,0.02-0.225,0.037-0.302c0.016-0.077,0.039-0.145,0.066-0.2
			c0.028-0.058,0.061-0.103,0.102-0.136c0.033-0.027,0.08-0.05,0.14-0.066c0.059-0.019,0.13-0.032,0.21-0.043
			c0.08-0.009,0.195-0.016,0.342-0.021c0.15-0.004,0.331-0.006,0.546-0.006c0.215,0,0.403,0.004,0.565,0.009
			c0.162,0.008,0.295,0.016,0.403,0.025c0.104,0.01,0.189,0.024,0.257,0.04c0.066,0.017,0.113,0.034,0.141,0.054
			c0.016,0.018,0.031,0.036,0.043,0.057c0.012,0.021,0.022,0.045,0.029,0.071c0.007,0.023,0.012,0.062,0.016,0.11
			c0.005,0.051,0.009,0.112,0.012,0.187h1.366c0.003-0.064,0.005-0.115,0.005-0.152c0.002-0.036,0.002-0.061,0.002-0.07
			c0-0.185-0.011-0.347-0.032-0.484c-0.021-0.14-0.052-0.256-0.097-0.351c-0.04-0.098-0.095-0.182-0.167-0.253
			c-0.071-0.07-0.16-0.131-0.264-0.177c-0.077-0.038-0.167-0.067-0.271-0.093c-0.106-0.023-0.223-0.043-0.354-0.056
			c-0.13-0.013-0.303-0.024-0.513-0.03c-0.214-0.006-0.463-0.011-0.753-0.011c-0.577,0-1.059,0.011-1.444,0.032
			c-0.383,0.02-0.671,0.052-0.864,0.097c-0.188,0.039-0.346,0.106-0.471,0.199c-0.127,0.093-0.221,0.211-0.282,0.352
			c-0.029,0.064-0.055,0.141-0.075,0.229c-0.021,0.09-0.037,0.192-0.047,0.311c-0.01,0.115-0.016,0.265-0.021,0.451
			c-0.003,0.187-0.005,0.411-0.005,0.673c0,0.265,0.002,0.49,0.005,0.673c0.005,0.184,0.01,0.326,0.021,0.431
			c0.014,0.125,0.033,0.236,0.061,0.337c0.026,0.1,0.061,0.185,0.101,0.255c0.04,0.074,0.092,0.14,0.153,0.196
			c0.061,0.058,0.132,0.106,0.217,0.147c0.09,0.048,0.205,0.088,0.342,0.119c0.136,0.034,0.294,0.059,0.473,0.076
			c0.181,0.017,0.424,0.028,0.73,0.035c0.306,0.008,0.673,0.012,1.1,0.012c0.813,0,1.386-0.041,1.716-0.121
			c0.33-0.073,0.551-0.223,0.666-0.444c0.051-0.098,0.089-0.214,0.115-0.349c0.026-0.135,0.04-0.288,0.04-0.458
			c0-0.034-0.001-0.087-0.003-0.158c-0.003-0.071-0.007-0.159-0.01-0.268h-1.365c-0.003,0.14-0.017,0.253-0.036,0.342
			C-237.098,50.362-237.128,50.426-237.168,50.463L-237.168,50.463z M-234.515,51.662h1.434v-4.49h-1.434V51.662L-234.515,51.662z
			 M-225.358,51.662l-2.349-4.49h-2.121l-2.383,4.49h1.563l0.382-0.761h2.969l0.389,0.761H-225.358L-225.358,51.662z
			 M-229.773,49.918l0.86-1.702h0.276l0.862,1.702H-229.773L-229.773,49.918z M-224.641,50.382c0,0.162,0.007,0.304,0.024,0.424
			c0.016,0.121,0.038,0.219,0.07,0.297c0.033,0.08,0.08,0.152,0.135,0.216c0.059,0.064,0.13,0.121,0.214,0.168
			c0.083,0.048,0.186,0.087,0.304,0.116c0.122,0.032,0.262,0.056,0.422,0.072c0.162,0.018,0.367,0.029,0.617,0.04
			c0.249,0.009,0.544,0.014,0.883,0.014c0.401,0,0.739-0.004,1.015-0.011c0.274-0.006,0.487-0.017,0.634-0.03
			c0.137-0.013,0.263-0.032,0.37-0.056c0.106-0.024,0.198-0.055,0.276-0.092c0.073-0.038,0.141-0.084,0.2-0.141
			c0.061-0.058,0.113-0.125,0.156-0.202c0.058-0.102,0.099-0.229,0.127-0.389c0.028-0.157,0.042-0.342,0.042-0.554
			c0-0.161-0.009-0.303-0.025-0.426c-0.017-0.123-0.043-0.228-0.076-0.314c-0.035-0.089-0.08-0.165-0.137-0.232
			c-0.059-0.067-0.129-0.124-0.214-0.172c-0.07-0.044-0.155-0.08-0.25-0.107c-0.097-0.028-0.207-0.051-0.328-0.067
			c-0.125-0.014-0.308-0.027-0.55-0.039c-0.242-0.014-0.544-0.025-0.904-0.034c-0.86-0.027-1.346-0.055-1.453-0.081
			c-0.064-0.017-0.111-0.052-0.143-0.101c-0.031-0.048-0.047-0.112-0.047-0.189c0-0.084,0.016-0.151,0.047-0.202
			c0.031-0.05,0.078-0.084,0.143-0.101c0.064-0.018,0.184-0.03,0.361-0.039c0.179-0.01,0.412-0.015,0.701-0.015
			c0.244,0,0.443,0.001,0.603,0.005c0.157,0.002,0.273,0.006,0.348,0.008c0.073,0.007,0.135,0.017,0.186,0.026
			c0.052,0.011,0.092,0.024,0.122,0.042c0.024,0.013,0.046,0.03,0.061,0.049c0.018,0.021,0.032,0.041,0.042,0.065
			c0.005,0.023,0.012,0.057,0.017,0.098s0.009,0.095,0.009,0.158h1.325c0-0.051,0-0.095,0-0.131c0-0.034,0-0.061,0-0.078
			c0-0.206-0.017-0.381-0.056-0.526c-0.037-0.145-0.096-0.261-0.172-0.349c-0.154-0.168-0.436-0.282-0.848-0.344
			c-0.134-0.017-0.316-0.03-0.549-0.039c-0.231-0.01-0.513-0.015-0.843-0.015c-0.464,0-0.852,0.005-1.16,0.016
			c-0.309,0.013-0.541,0.028-0.69,0.052c-0.156,0.023-0.29,0.062-0.401,0.112c-0.113,0.05-0.205,0.117-0.28,0.197
			c-0.097,0.104-0.17,0.245-0.217,0.426c-0.049,0.178-0.071,0.396-0.071,0.651c0,0.226,0.021,0.418,0.064,0.58
			c0.043,0.159,0.106,0.287,0.191,0.382c0.047,0.062,0.104,0.111,0.175,0.152c0.068,0.044,0.148,0.077,0.235,0.104
			c0.087,0.023,0.194,0.043,0.321,0.059c0.127,0.017,0.271,0.028,0.431,0.035c0.085,0,0.219,0.004,0.4,0.013
			c0.182,0.01,0.412,0.021,0.692,0.034c0.273,0.013,0.497,0.022,0.676,0.027c0.179,0.004,0.31,0.007,0.393,0.007
			c0.111,0.003,0.204,0.011,0.278,0.024c0.073,0.012,0.127,0.029,0.16,0.05c0.039,0.022,0.064,0.056,0.082,0.101
			c0.017,0.045,0.026,0.101,0.026,0.168c0,0.094-0.012,0.169-0.036,0.227c-0.024,0.057-0.061,0.096-0.111,0.116
			c-0.037,0.014-0.079,0.024-0.124,0.032c-0.045,0.007-0.096,0.012-0.153,0.016c-0.061,0.003-0.177,0.007-0.349,0.009
			c-0.172,0.003-0.403,0.005-0.693,0.005c-0.275-0.004-0.496-0.007-0.661-0.011c-0.163-0.003-0.271-0.007-0.321-0.01
			s-0.097-0.011-0.141-0.024c-0.043-0.012-0.082-0.029-0.117-0.051c-0.043-0.029-0.077-0.08-0.099-0.153
			c-0.024-0.073-0.035-0.165-0.035-0.277h-1.325V50.382L-224.641,50.382z"/>
		<path fill="#C10B19" d="M-289.729,44.735l2.926-19.552h-4.63l0.99-6.792c2.796,0,6.979-1.842,8.195-4.262l9.407-0.02
			l-4.644,30.626H-289.729L-289.729,44.735z"/>
		<path fill="#C10B19" d="M-272.331,24.657l0.774-5.453c0.445-3.142,3.583-5.084,7.259-5.063l14.805,0.087
			c3.55,0.02,6.439,1.087,5.659,6.372l-0.704,4.769c-0.179,1.213-1.528,4.174-3.166,5.424l-9.502,7.251h10.757l-1.229,6.691
			l-28.018-0.082l0.943-6.516l16.322-12.322c0.572-0.432,1.624-1.814,1.82-2.91c0.196-1.098-0.318-1.822-1.306-1.869
			c-0.733-0.035-1.662,0.741-1.81,1.792l-0.257,1.829H-272.331L-272.331,24.657z"/>
		<path fill="#C10B19" d="M-244.182,33.834l12.245-0.055l-0.308,2.68c-0.215,1.888,2.874,2.182,3.171,0.16l0.382-3.055
			c0.139-1.122-0.987-1.865-2.303-1.865h-1.99l0.938-6.988h2.008c1.835,0,2.88-0.417,2.974-1.484l0.097-1.081
			c0.073-0.819-0.184-1.336-1.304-1.351c-1.144-0.016-1.653,0.817-1.691,1.109l-0.181,1.451h-12.377l0.471-3.194
			c0.775-5.264,4.165-6.312,8.945-6.257l13.203,0.147c1.85,0.021,3.122,0.465,3.842,0.833c1.467,0.747,2.326,2.368,1.952,5.146
			l-0.424,3.121c-0.433,3.196-3.5,4.766-6.234,5.304c3.623,0.734,4.807,3.431,4.393,6.084l-0.661,4.224
			c-0.746,4.783-4.071,5.998-8.624,5.972l-12.591-0.073c-4.431-0.026-7.297-1.361-6.677-5.669L-244.182,33.834L-244.182,33.834z"/>
	</g>
	<g>
		<g>
			<g>
				<path fill="#FFFFFF" d="M-379.673,7.271c-8.267,0-15.358,5.03-18.405,12.199c3.076-5.496,8.964-9.231,15.695-9.231
					c9.942,0,17.98,8.058,17.98,17.979c0,9.93-8.038,17.968-17.98,17.968c-2.331,0-4.571-0.447-6.624-1.265
					c2.779,1.473,5.966,2.313,9.331,2.313c11.038,0,19.984-8.945,19.984-19.973C-359.687,16.226-368.634,7.271-379.673,7.271"/>
				<path fill="#FFFFFF" d="M-381.446,17.232c0,1.155-0.937,2.093-2.089,2.093c-1.155,0-2.089-0.937-2.089-2.093
					c0-1.154,0.935-2.091,2.089-2.091C-382.382,15.141-381.446,16.078-381.446,17.232"/>
				<path fill="#FFFFFF" d="M-370.508,18.397c0,1.146-0.935,2.083-2.089,2.083s-2.095-0.935-2.095-2.083
					c0-1.167,0.938-2.1,2.095-2.1C-371.443,16.297-370.508,17.232-370.508,18.397"/>
				<path fill="#FFFFFF" d="M-368.415,27.262c0,1.156-0.937,2.093-2.093,2.093c-1.15,0-2.089-0.938-2.089-2.093
					c0-1.153,0.939-2.099,2.089-2.099C-369.351,25.163-368.415,26.107-368.415,27.262"/>
				<path fill="#FFFFFF" d="M-385.626,22.571c0.218-0.336,0.338-0.725,0.338-1.166c0-1.154-0.937-2.083-2.093-2.083
					c-0.816,0-1.526,0.479-1.854,1.165l-0.018-0.008c-5.129,7.918-2.771,23.857-2.771,23.857
					c-0.398-12.919,4.542-19.644,5.996-21.337c0.146-0.13,0.282-0.258,0.401-0.418V22.571L-385.626,22.571z"/>
				<path fill="#FFFFFF" d="M-376.125,23.515c0.378-0.256,0.679-0.635,0.856-1.104c0.468-1.255-0.159-2.66-1.414-3.128
					c-0.896-0.337-1.854-0.11-2.51,0.499v-0.011c-10.628,7.49-11.553,25.25-11.553,25.25c4.86-14.184,7.809-16.802,14.024-21.185
					c0.208-0.08,0.406-0.18,0.597-0.308V23.515L-376.125,23.515z"/>
				<path fill="#FFFFFF" d="M-374.392,31.081c0.338-0.203,0.627-0.498,0.816-0.878c0.498-1.045,0.061-2.302-0.973-2.801
					c-0.737-0.358-1.584-0.228-2.192,0.24v-0.012c-11.454,6.345-12.184,18.279-12.184,18.279
					c5.26-11.811,11.946-13.726,13.987-14.604c0.189-0.047,0.366-0.106,0.545-0.216V31.081L-374.392,31.081L-374.392,31.081z"/>
				<g>
					<path fill="#FFFFFF" d="M-501.164,43.439c0,1.177-0.447,2.172-1.325,2.986c-0.854,0.8-1.89,1.195-3.079,1.195
						c-1.921,0-3.494-1.096-4.688-3.275l1.324-0.8c0.926,1.706,2,2.562,3.227,2.562c1.154,0,1.992-0.446,2.518-1.344
						c0.242-0.411,0.36-0.837,0.36-1.297c0-0.518-0.18-1.035-0.537-1.534c-0.459-0.646-1.305-1.443-2.551-2.371
						c-1.274-0.942-2.121-1.684-2.531-2.239c-0.547-0.738-0.827-1.524-0.827-2.375c0-1.432,0.629-2.486,1.863-3.162
						c0.578-0.309,1.214-0.47,1.913-0.47c1.474,0,2.829,0.843,4.063,2.539l-1.254,0.968c-0.479-0.629-0.877-1.068-1.214-1.337
						c-0.489-0.388-1.04-0.576-1.636-0.576c-0.597,0-1.096,0.18-1.504,0.537c-0.43,0.368-0.637,0.848-0.637,1.436
						c0,0.694,0.328,1.372,0.984,2.019c0.188,0.182,0.856,0.698,2.014,1.558c1.056,0.771,1.841,1.48,2.371,2.111
						C-501.55,41.506-501.164,42.461-501.164,43.439z"/>
					<path fill="#FFFFFF" d="M-488.263,41.388c0,1.293-0.121,2.321-0.368,3.077c-0.338,1.035-0.945,1.833-1.843,2.38
						c-0.747,0.46-1.683,0.688-2.799,0.688c-2.202,0-3.696-0.866-4.475-2.589c-0.376-0.807-0.558-2.03-0.558-3.663v-5.53h1.495
						v5.359c0,1.314,0.071,2.223,0.21,2.702c0.211,0.724,0.639,1.293,1.266,1.704c0.587,0.372,1.275,0.566,2.062,0.566
						c0.767,0,1.435-0.182,2.003-0.54c0.617-0.377,1.035-0.927,1.275-1.625c0.14-0.437,0.218-1.374,0.218-2.807v-5.36h1.513V41.388
						L-488.263,41.388z"/>
					<path fill="#FFFFFF" d="M-472.992,41.459c0,1.674-0.569,3.105-1.682,4.281c-1.147,1.194-2.55,1.793-4.203,1.793
						c-1.826,0-3.348-0.762-4.604-2.272v6.177h-1.476V35.748h1.476v2.112c1.175-1.604,2.69-2.41,4.563-2.41
						c1.652,0,3.046,0.589,4.201,1.764C-473.571,38.389-472.992,39.805-472.992,41.459z M-474.496,41.519
						c0-0.819-0.2-1.591-0.609-2.321c-0.406-0.727-0.966-1.294-1.662-1.704c-0.699-0.398-1.454-0.607-2.272-0.607
						c-1.314,0-2.39,0.445-3.249,1.354c-0.865,0.896-1.295,2.002-1.295,3.315c0,1.824,0.758,3.158,2.262,4.005
						c0.726,0.408,1.485,0.605,2.3,0.605c0.816,0,1.577-0.208,2.272-0.624c0.675-0.42,1.226-0.997,1.632-1.725
						C-474.696,43.09-474.496,42.322-474.496,41.519z"/>
					<path fill="#FFFFFF" d="M-458.937,41.606h-10.31c0.029,1.284,0.43,2.36,1.208,3.215c0.818,0.902,1.85,1.346,3.116,1.346
						c1.226,0,2.262-0.368,3.109-1.115c0.386-0.338,0.807-0.877,1.255-1.634l1.246,0.659c-0.779,1.514-1.855,2.529-3.218,3.059
						c-0.666,0.268-1.427,0.397-2.274,0.397c-1.72,0-3.154-0.578-4.271-1.714c-1.134-1.135-1.703-2.567-1.703-4.293
						c0-1.464,0.448-2.759,1.347-3.894c1.136-1.455,2.647-2.183,4.543-2.183c1.958,0,3.526,0.745,4.688,2.229
						C-459.376,38.738-458.946,40.042-458.937,41.606z M-460.551,40.324c-0.358-1.456-1.156-2.451-2.353-3.021
						c-0.619-0.28-1.274-0.428-1.951-0.428c-1.136,0-2.091,0.359-2.909,1.085c-0.587,0.521-1.037,1.308-1.335,2.363H-460.551
						L-460.551,40.324L-460.551,40.324z"/>
					<path fill="#FFFFFF" d="M-450.93,35.84l-0.776,1.264c-0.307-0.137-0.569-0.208-0.778-0.208c-1.176,0-2.001,0.838-2.46,2.492
						c-0.188,0.654-0.269,1.98-0.269,3.961v3.888h-1.534V35.748h1.534v1.686c0.889-1.315,1.872-1.983,2.969-1.983
						C-451.825,35.45-451.397,35.579-450.93,35.84z"/>
					<path fill="#FFFFFF" d="M-443.897,44.148c0,0.975-0.33,1.781-0.997,2.42c-0.665,0.636-1.497,0.965-2.472,0.965
						c-1.413,0-2.547-0.548-3.385-1.632l0.928-1.056c0.747,0.847,1.544,1.276,2.39,1.276c0.549,0,1.044-0.181,1.482-0.55
						c0.428-0.355,0.638-0.814,0.638-1.362c0-0.549-0.247-1.035-0.755-1.465c-0.26-0.208-0.757-0.496-1.506-0.877
						c-0.845-0.438-1.464-0.876-1.861-1.307c-0.54-0.575-0.798-1.261-0.798-2.07c0-0.888,0.298-1.624,0.897-2.182
						c0.598-0.565,1.354-0.858,2.25-0.858c1.056,0,2.113,0.521,3.189,1.557l-0.957,0.985c-0.777-0.765-1.555-1.146-2.302-1.146
						c-0.459,0-0.867,0.15-1.215,0.446c-0.348,0.311-0.527,0.68-0.527,1.129c0,0.756,0.737,1.515,2.188,2.269
						c0.898,0.468,1.553,0.909,1.963,1.338C-444.177,42.612-443.897,43.319-443.897,44.148z"/>
					<path fill="#FFFFFF" d="M-429.844,47.235h-1.463v-1.974c-1.245,1.51-2.787,2.271-4.613,2.271c-1.661,0-3.057-0.599-4.193-1.793
						c-1.125-1.176-1.692-2.607-1.692-4.281c0-1.654,0.576-3.069,1.73-4.243c1.146-1.175,2.549-1.765,4.205-1.765
						c1.894,0,3.407,0.808,4.562,2.41V35.75h1.464L-429.844,47.235L-429.844,47.235z M-431.209,41.556
						c0-1.313-0.441-2.419-1.293-3.315c-0.858-0.909-1.941-1.354-3.25-1.354c-1.751,0-3.068,0.777-3.923,2.312
						c-0.417,0.729-0.627,1.503-0.627,2.319c0,0.808,0.21,1.585,0.627,2.321c0.408,0.727,0.959,1.307,1.662,1.715
						c0.699,0.409,1.443,0.618,2.245,0.618c0.814,0,1.573-0.199,2.298-0.606c0.727-0.41,1.286-0.967,1.663-1.655
						C-431.408,43.21-431.209,42.421-431.209,41.556z"/>
					<path fill="#FFFFFF" d="M-425.251,47.235h-1.493V31.317h1.493V47.235z"/>
					<path fill="#FFFFFF" d="M-412.33,41.388c0,1.293-0.119,2.321-0.368,3.077c-0.34,1.035-0.957,1.833-1.854,2.38
						c-0.737,0.46-1.674,0.688-2.791,0.688c-2.208,0-3.693-0.866-4.479-2.589c-0.372-0.807-0.56-2.03-0.56-3.663v-5.53h1.506v5.359
						c0,1.314,0.067,2.223,0.207,2.702c0.219,0.724,0.635,1.293,1.253,1.704c0.598,0.372,1.287,0.566,2.073,0.566
						c0.758,0,1.437-0.182,2.013-0.54c0.608-0.377,1.025-0.927,1.253-1.625c0.148-0.437,0.222-1.374,0.222-2.807v-5.36h1.524V41.388
						L-412.33,41.388z"/>
					<path fill="#FFFFFF" d="M-397.581,47.235h-1.475v-1.974c-1.235,1.51-2.769,2.271-4.6,2.271c-1.665,0-3.059-0.599-4.205-1.793
						c-1.116-1.176-1.683-2.607-1.683-4.281c0-1.654,0.567-3.069,1.722-4.243c1.156-1.175,2.551-1.765,4.207-1.765
						c1.892,0,3.414,0.808,4.56,2.41v-6.543h1.475V47.235L-397.581,47.235z M-398.953,41.556c0-1.313-0.429-2.419-1.297-3.315
						c-0.856-0.909-1.93-1.354-3.246-1.354c-1.753,0-3.069,0.777-3.923,2.312c-0.421,0.729-0.623,1.503-0.623,2.319
						c0,0.808,0.202,1.585,0.623,2.321c0.417,0.727,0.971,1.307,1.672,1.715c0.695,0.409,1.445,0.618,2.251,0.618
						c0.795,0,1.562-0.199,2.291-0.606c0.719-0.41,1.271-0.967,1.672-1.655C-399.156,43.21-398.953,42.421-398.953,41.556z"/>
				</g>
				<g>
					<path fill="#FFFFFF" d="M-588.777,31.705l-6.762,15.528h-0.328l-6.664-15.528h1.69l5.142,12.003l5.24-12.003H-588.777z"/>
					<path fill="#FFFFFF" d="M-584.682,32.233c0,0.339-0.121,0.626-0.356,0.867c-0.241,0.227-0.521,0.348-0.86,0.348
						c-0.337,0-0.617-0.118-0.855-0.357c-0.24-0.241-0.356-0.519-0.356-0.859c0-0.329,0.119-0.616,0.356-0.855
						c0.24-0.239,0.516-0.358,0.855-0.358c0.34,0,0.62,0.12,0.86,0.358C-584.801,31.616-584.682,31.904-584.682,32.233z
						 M-585.14,47.235h-1.494V35.748h1.494V47.235z"/>
					<path fill="#FFFFFF" d="M-570.697,44.902c0,1.594-0.151,2.779-0.429,3.536c-0.409,1.114-1.145,1.962-2.183,2.53
						c-0.917,0.509-2.01,0.76-3.287,0.76c-1.974,0-3.495-0.511-4.572-1.525c-0.488-0.479-0.944-1.155-1.365-2.063h1.592
						c0.86,1.483,2.285,2.232,4.267,2.232c2,0,3.344-0.668,4.02-1.984c0.3-0.566,0.449-1.485,0.449-2.749v-0.586
						c-1.154,1.453-2.681,2.182-4.591,2.182c-1.045,0-2.031-0.26-2.957-0.776c-0.928-0.521-1.646-1.228-2.161-2.113
						c-0.509-0.896-0.759-1.871-0.759-2.938c0-1.068,0.262-2.063,0.787-2.978c0.529-0.918,1.255-1.646,2.182-2.174
						c0.938-0.535,1.924-0.806,2.95-0.806c1.753,0,3.266,0.766,4.549,2.289v-1.991h1.505v9.154H-570.697z M-572.132,41.396
						c0-1.793-0.718-3.098-2.171-3.914c-0.697-0.399-1.454-0.599-2.25-0.599c-0.836,0-1.614,0.199-2.333,0.608
						c-0.715,0.399-1.273,0.955-1.672,1.672c-0.419,0.72-0.619,1.484-0.619,2.313c0,1.303,0.439,2.352,1.307,3.168
						c0.847,0.783,1.921,1.187,3.236,1.187c1.346,0,2.432-0.403,3.268-1.219C-572.55,43.809-572.132,42.743-572.132,41.396z"/>
					<path fill="#FFFFFF" d="M-565.806,32.233c0,0.339-0.119,0.626-0.351,0.867c-0.236,0.227-0.536,0.348-0.875,0.348
						c-0.318,0-0.607-0.118-0.838-0.357c-0.236-0.241-0.357-0.519-0.357-0.859c0-0.329,0.111-0.616,0.336-0.855
						c0.242-0.239,0.531-0.358,0.86-0.358c0.338,0,0.637,0.12,0.874,0.358C-565.926,31.616-565.806,31.904-565.806,32.233z
						 M-566.258,47.235h-1.502V35.748h1.502V47.235z"/>
					<path fill="#FFFFFF" d="M-561.942,47.235h-1.485V31.317h1.485V47.235z"/>
					<path fill="#FFFFFF" d="M-547.438,47.235h-1.466v-1.974c-1.244,1.51-2.79,2.271-4.611,2.271c-1.662,0-3.056-0.599-4.196-1.793
						c-1.124-1.176-1.691-2.607-1.691-4.281c0-1.654,0.578-3.069,1.733-4.243c1.147-1.175,2.55-1.765,4.205-1.765
						c1.894,0,3.407,0.808,4.563,2.41V35.75h1.466v11.485H-547.438L-547.438,47.235z M-548.804,41.556
						c0-1.313-0.437-2.419-1.292-3.315c-0.86-0.909-1.942-1.354-3.25-1.354c-1.752,0-3.066,0.777-3.923,2.312
						c-0.42,0.729-0.631,1.503-0.631,2.319c0,0.808,0.21,1.585,0.631,2.321c0.406,0.727,0.956,1.307,1.664,1.715
						c0.697,0.409,1.445,0.618,2.241,0.618c0.815,0,1.573-0.199,2.3-0.606c0.729-0.41,1.286-0.967,1.664-1.655
						C-549.004,43.21-548.804,42.421-548.804,41.556z"/>
					<path fill="#FFFFFF" d="M-532.649,47.235h-1.473v-1.974c-1.237,1.51-2.769,2.271-4.603,2.271c-1.663,0-3.057-0.599-4.202-1.793
						c-1.116-1.176-1.686-2.607-1.686-4.281c0-1.654,0.569-3.069,1.723-4.243c1.154-1.175,2.55-1.765,4.203-1.765
						c1.893,0,3.417,0.808,4.562,2.41v-6.543h1.473L-532.649,47.235L-532.649,47.235z M-534.023,41.556
						c0-1.313-0.426-2.419-1.293-3.315c-0.856-0.909-1.934-1.354-3.25-1.354c-1.753,0-3.066,0.777-3.923,2.312
						c-0.421,0.729-0.62,1.503-0.62,2.319c0,0.808,0.199,1.585,0.62,2.321c0.417,0.727,0.976,1.307,1.672,1.715
						c0.696,0.409,1.445,0.618,2.25,0.618c0.798,0,1.565-0.199,2.292-0.606c0.717-0.41,1.275-0.967,1.672-1.655
						C-534.223,43.21-534.023,42.421-534.023,41.556z"/>
					<path fill="#FFFFFF" d="M-517.886,41.527c0,1.684-0.578,3.108-1.723,4.266c-1.144,1.165-2.569,1.74-4.254,1.74
						c-1.692,0-3.108-0.575-4.263-1.732c-1.154-1.152-1.732-2.578-1.732-4.273c0-1.593,0.539-2.977,1.594-4.141
						c1.154-1.287,2.628-1.936,4.402-1.936c1.764,0,3.229,0.65,4.384,1.926C-518.424,38.54-517.886,39.928-517.886,41.527z
						 M-519.399,41.556c0-1.266-0.428-2.358-1.296-3.279c-0.854-0.912-1.912-1.371-3.167-1.371c-1.255,0-2.321,0.459-3.178,1.371
						c-0.866,0.921-1.283,2.014-1.283,3.279c0,0.818,0.178,1.573,0.578,2.282c0.398,0.736,0.938,1.295,1.633,1.683
						c0.677,0.402,1.435,0.6,2.25,0.6c1.733,0,3.028-0.748,3.866-2.254C-519.601,43.16-519.399,42.385-519.399,41.556z"/>
				</g>
			</g>
		</g>
	</g>
</g>
</svg>
